<?xml version="1.0" standalone="no"?>
<!DOCTYPE svg PUBLIC "-//W3C//DTD SVG 20010904//EN"
 "http://www.w3.org/TR/2001/REC-SVG-20010904/DTD/svg10.dtd">
<svg version="1.0" xmlns="http://www.w3.org/2000/svg"
 width="700.000000pt" height="700.000000pt" viewBox="0 0 700.000000 700.000000"
 preserveAspectRatio="xMidYMid meet">
<metadata>
Created by potrace 1.11, written by Peter Selinger 2001-2013
</metadata>
<g transform="translate(0.000000,700.000000) scale(0.100000,-0.100000)"
fill="#000000" stroke="none">
<path d="M2630 4720 l0 -1890 215 0 215 0 0 1890 0 1890 -215 0 -215 0 0
-1890z"/>
<path d="M1870 4250 l0 -1420 215 0 215 0 0 1420 0 1420 -215 0 -215 0 0
-1420z"/>
<path d="M3380 4250 l0 -1420 215 0 215 0 0 1420 0 1420 -215 0 -215 0 0
-1420z"/>
<path d="M1130 3775 l0 -945 215 0 215 0 0 945 0 945 -215 0 -215 0 0 -945z"/>
<path d="M4170 3775 l0 -945 215 0 215 0 0 945 0 945 -215 0 -215 0 0 -945z"/>
<path d="M5402 2450 c-147 -21 -224 -55 -315 -140 -97 -90 -159 -227 -173
-380 -18 -193 91 -411 265 -529 31 -21 156 -88 277 -149 121 -61 235 -123 254
-138 36 -30 69 -95 70 -133 0 -47 -25 -106 -60 -141 -68 -68 -226 -90 -349
-49 -49 17 -79 36 -131 85 -37 35 -78 80 -91 99 -13 19 -28 35 -32 35 -12 0
-327 -190 -327 -197 0 -13 116 -159 157 -200 96 -93 233 -167 371 -199 81 -20
272 -22 357 -5 292 60 441 193 491 441 34 169 4 343 -82 467 -79 115 -189 192
-474 331 -221 108 -259 135 -284 195 -18 42 -19 54 -9 102 20 96 66 134 168
143 52 4 72 0 117 -20 50 -23 73 -45 136 -127 l18 -24 142 94 c78 52 144 102
148 112 9 27 -41 104 -112 174 -68 67 -171 123 -259 141 -78 16 -204 21 -273
12z"/>
<path d="M4180 1689 c0 -520 -3 -754 -11 -785 -23 -90 -108 -143 -211 -131
-93 11 -122 35 -230 190 -12 18 -23 13 -158 -73 -80 -51 -151 -98 -159 -105
-21 -20 41 -127 119 -205 128 -128 266 -183 460 -182 187 0 315 44 427 145 65
60 115 156 145 282 20 87 21 116 25 814 3 399 2 740 -2 758 l-6 33 -199 0
-200 0 0 -741z"/>
</g>
</svg>
