<svg id="Layer_1" xmlns="http://www.w3.org/2000/svg" viewBox="0 0 90 90"><style>.st0{fill:#efb42e}.st1{fill:#38beb9}.st2{fill:#ed6359}.st3{fill:#6ecacd}.st4{fill:#f8c741}.st5{fill:#f47c66}.st6{enable-background:new}</style><path class="st0" d="M56.2 1.9l-5.7 5.7-5.7-5.7z"/><path class="st1" d="M81 49.6l-5.7-5.7 5.7-5.7z"/><path class="st2" d="M8.5 26.8l5.7 5.7-5.7 5.7z"/><path class="st3" d="M62.9 20l-5.7 5.7 12.4 12.5-12.4 12.4 5.7 5.7L81 38.2z"/><path transform="rotate(-45.001 53.539 38.177)" class="st3" d="M47.3 31.9h12.5v12.5H47.3z"/><path class="st4" d="M44.8 13.3l12.4 12.4 5.7-5.7L44.8 1.9 26.6 20l5.7 5.7z"/><path transform="rotate(-45.001 44.77 29.397)" class="st4" d="M38.5 23.1H51v12.5H38.5z"/><g><path transform="rotate(-45.001 35.99 38.184)" class="st5" d="M29.7 31.9h12.5v12.5H29.7z"/><path class="st5" d="M19.9 38.2l12.4-12.5-5.7-5.7L8.5 38.2l18.1 18.1 5.7-5.7z"/></g><g class="st6"><path d="M14.3 63.3c0-.2.1-.3.3-.3h.4c.2 0 .3.1.3.3v7.8s1.2-1 3.1-1c2.8 0 4.8 2.2 4.8 5.2 0 2.9-2 5.2-4.5 5.2-1.9 0-3.1-1.1-3.4-1.5l-.1 1c0 .2-.1.3-.3.3h-.2c-.2 0-.3-.1-.3-.3V63.3zm4.3 16.3c2.1 0 3.6-1.9 3.6-4.2 0-2.3-1.6-4.1-3.9-4.1-1.8 0-2.9 1-2.9 1v5.5c0 .1 1.1 1.8 3.2 1.8zM27.1 70.7c0-.2.1-.3.3-.3h.4c.2 0 .3.1.3.3V76c0 2.3 1.1 3.5 2.9 3.5 2 0 3.2-1.6 3.3-1.7v-7c0-.2.1-.3.3-.3h.4c.2 0 .3.1.3.3V80c0 .2-.1.3-.3.3h-.3c-.2 0-.3-.1-.3-.3l-.1-1c-.3.3-1.5 1.5-3.4 1.5-2.8 0-4-1.7-4-4.5v-5.3zM39.9 64.8c0-.5.4-.9.8-.9s.8.4.8.9c0 .4-.4.8-.8.8s-.8-.4-.8-.8zm.3 5.9c0-.2.1-.3.3-.3h.5c.2 0 .3.1.3.3V80c0 .2-.1.3-.3.3h-.5c-.2 0-.3-.1-.3-.3v-9.3zM46 63.3c0-.2.1-.3.3-.3h.4c.2 0 .3.1.3.3V80c0 .2-.1.3-.3.3h-.5c-.2 0-.3-.1-.3-.3V63.3zM56 70.2c1.9 0 3 1 3 1v-7.8c0-.2.1-.3.3-.3h.4c.1 0 .3.1.3.3V80c0 .2-.1.3-.3.3h-.2c-.2 0-.3-.1-.3-.3l-.1-.9c-.3.3-1.5 1.4-3.4 1.4-2.6 0-4.6-2.3-4.6-5.2.1-2.8 2.1-5.1 4.9-5.1zm-.2 9.4c2.1 0 3.2-1.7 3.3-1.8v-5.5s-1.1-1-2.9-1c-2.3 0-3.9 1.8-3.9 4.1-.1 2.3 1.4 4.2 3.5 4.2zM69.1 70.2c2.8 0 5 2.3 5 5.2 0 2.9-2.2 5.2-5 5.2s-5-2.3-5-5.2c0-2.9 2.2-5.2 5-5.2zm0 9.3c2.2 0 3.9-1.9 3.9-4.2 0-2.3-1.7-4.1-3.9-4.1s-3.9 1.9-3.9 4.1c0 2.4 1.7 4.2 3.9 4.2z"/></g></svg>