<svg width="200" height="90" xmlns="http://www.w3.org/2000/svg"><defs><clipPath id="a"><path d="M-263.522 336.56h425v-206h-425v206z"/></clipPath></defs><title>background</title><path fill="none" d="M-1-1h202v92H-1z"/><g><title>Layer 1</title><path fill="#393939" d="M105.488 40.44h1.988v2.906h-7.444V40.44h1.989V28.23h-2.677v2.65H96.59v-5.735h14.327v5.735h-2.753v-2.65h-2.676v12.21z"/><g clip-path="url(#a)" transform="matrix(.46502 0 0 -.46502 121.546 154.79)"><path fill="#393939" d="M3.347 254.457c0 4.824-4 8.717-8.826 8.717-4.988 0-8.825-4.113-8.825-9.047 0-4.768 4-8.715 8.714-8.715 5.044 0 8.937 4.057 8.937 9.045m-.111-10.854c-2.137-3.234-5.591-4.714-9.427-4.714-8.388 0-15.021 6.962-15.021 15.238 0 8.498 6.797 15.57 15.35 15.57 3.78 0 7.07-1.756 9.098-4.933v4.165h10.472v-6.248h-3.673v-16.777h3.673v-6.248H3.236v3.947zM25.986 245.904h3.783v-6.248H15.243v6.248h4.055v26.644h-3.782v6.249h10.47v-32.893zM55.587 256.923c-1.15 4.221-4.879 6.907-9.209 6.907-3.947 0-7.73-3.07-8.553-6.907h17.762zm5.1-8.662c-2.305-5.59-7.73-9.374-13.815-9.374-8.553 0-15.406 6.688-15.406 15.294 0 8.662 6.525 15.625 15.24 15.625 4.057 0 8.113-1.81 10.963-4.715 2.908-3.07 4.113-6.798 4.113-10.964l-.218-2.356H37.88c.88-4.058 4.603-7.017 8.771-7.017 2.905 0 5.428 1.095 7.073 3.507h6.963zM67.263 262.68h-3.781v6.247H73.95v-4.164c1.754 3.232 5.045 4.824 8.663 4.824 3.179 0 6.304-1.318 8.439-3.619 2.416-2.685 2.469-5.263 2.469-8.606v-11.457h3.783v-6.249H83.05v6.25h3.783v9.482c0 1.81 0 3.672-1.15 5.263-1.21 1.59-3.182 2.358-5.154 2.358-2.028 0-4.112-.824-5.317-2.469-1.262-1.644-1.262-4.166-1.262-6.137v-8.498h3.784v-6.249H63.482v6.25h3.78v16.773zM109.581 245.904h5.318v-6.248h-12.005v23.023H98.29v6.248h4.604v9.87h6.687v-9.87h4.99v-6.248h-4.99v-16.775zM-13.536 195.278h-6.195v6.03c-3.014-4.495-8.223-6.798-13.595-6.798-11.292 0-20.339 9.157-20.339 20.449 0 5.317 1.865 10.253 5.537 14.142 3.783 3.948 9.264 6.36 14.694 6.36 4.712 0 8.769-1.59 12.332-4.661v3.62h6.14v-11.512h-8.113c-1.262 1.698-2.741 2.96-4.44 3.782-1.699.877-3.619 1.317-5.756 1.317-7.292 0-12.884-5.704-12.884-12.938 0-7.183 5.592-13.103 12.829-13.103 5.208 0 9.593 2.85 11.513 7.674h-14.473v6.304h22.75v-20.666zM13.215 210.079c0 4.824-4.003 8.718-8.825 8.718-4.989 0-8.827-4.113-8.827-9.045 0-4.77 4.002-8.718 8.714-8.718 5.042 0 8.938 4.059 8.938 9.045m-.11-10.854c-2.137-3.234-5.592-4.712-9.429-4.712-8.388 0-15.023 6.962-15.023 15.239 0 8.496 6.799 15.567 15.352 15.567 3.783 0 7.072-1.755 9.1-4.932v4.166h10.47v-6.248h-3.673v-16.777h3.673v-6.25h-10.47v3.947zM37.087 219.564c1.7 3.452 4.988 5.151 8.77 5.315v-6.851c-2.139-.11-4.112-.657-5.756-2.138-2.194-1.863-2.522-4.222-2.522-6.962v-7.4h3.783v-6.249H27.108v6.249h3.784v16.775h-3.784v6.248h9.98v-4.987zM70.333 210.024c0 4.825-4.002 8.771-8.77 8.771-4.988 0-8.935-4-8.935-8.99 0-4.823 3.947-8.825 8.826-8.825 4.986 0 8.88 4.11 8.88 9.044m-.165-10.358c-2.193-3.289-5.699-4.826-9.592-4.826-8.168 0-14.912 6.961-14.912 15.076 0 8.168 6.58 15.129 14.854 15.129 3.73 0 7.347-1.754 9.65-4.768v7.893h-3.838v6.25h10.525v-32.892h3.784v-6.249H70.17v4.387zM106.02 212.547c-1.151 4.22-4.878 6.906-9.208 6.906-3.947 0-7.73-3.069-8.553-6.906h17.762zm5.099-8.662c-2.301-5.59-7.731-9.374-13.813-9.374-8.553 0-15.404 6.686-15.404 15.295 0 8.662 6.52 15.623 15.238 15.623 4.055 0 8.113-1.81 10.963-4.714 2.906-3.07 4.11-6.798 4.11-10.965l-.217-2.356H88.314c.879-4.058 4.603-7.018 8.769-7.018 2.907 0 5.43 1.097 7.075 3.51h6.96zM117.697 218.303h-3.783v6.248h10.47v-4.166c1.756 3.233 5.042 4.824 8.66 4.824 3.18 0 6.307-1.315 8.444-3.617 2.412-2.685 2.467-5.264 2.467-8.606V201.53h3.783v-6.249h-14.254v6.25h3.78v9.48c0 1.812 0 3.675-1.15 5.265-1.204 1.59-3.18 2.356-5.151 2.356-2.03 0-4.112-.823-5.317-2.468-1.262-1.642-1.262-4.166-1.262-6.138v-8.496h3.782v-6.249h-14.252v6.25h3.783v16.773z"/><path fill="#fff" d="M-92.067 311.732c-7.314 5.941-17.178 9.328-27.764 9.535-.34.008-.683.011-1.021.011-21.012 0-38.361-13.042-38.682-29.074-.106-5.402 1.719-10.742 5.28-15.441 4.562-5.859 3.722-13.802 2.214-19.433l15.963 6.874 1.08-.341c4.453-1.407 9.16-2.17 13.992-2.266 21.415-.392 39.38 12.773 39.704 29.065.156 7.825-3.67 15.308-10.766 21.07"/><path fill="#eb7660" d="M-142.594 316.116c6.215 3.25 13.708 5.162 21.742 5.162.338 0 .68-.003 1.02-.011 10.587-.207 20.45-3.593 27.765-9.535 7.097-5.762 10.922-13.245 10.765-21.07-.11-5.517-2.246-10.672-5.85-15.067-7.04-8.583-19.69-14.257-33.853-13.998-4.832.096-9.54.859-13.992 2.266l-1.08.34-15.963-6.873c1.508 5.63 2.348 13.574-2.213 19.433-3.562 4.7-5.387 10.04-5.281 15.44.198 9.904 6.898 18.66 16.94 23.913m58.63-46.307c5.368 5.77 8.585 12.91 8.738 20.734.192 9.738-4.427 18.939-13.01 25.908-8.362 6.79-19.538 10.66-31.472 10.894-12.471.252-23.708-3.417-31.946-9.592a89.047 89.047 0 0 1-11.214.706c-48.76 0-88.287-39.528-88.287-88.285 0-48.76 39.528-88.287 88.287-88.287 48.76 0 88.287 39.527 88.287 88.287 0 14.254-3.383 27.715-9.382 39.635"/><path fill="#eb7660" fill-rule="evenodd" d="M-132.839 295.832a4.632 4.632 0 0 1-4.633-4.633 4.633 4.633 0 1 1 4.633 4.633M-119.605 295.832a4.634 4.634 0 1 1 .001-9.267 4.634 4.634 0 0 1-.001 9.267M-106.372 295.832a4.633 4.633 0 1 1 0-9.267 4.632 4.632 0 0 1 4.633 4.634 4.63 4.63 0 0 1-4.633 4.633"/><path fill="#fff" d="M-206.563 220.36h7.075v-8.315h-15.975v30.64h-6.13v8.318h6.13v13.129h8.9v-13.13h6.639v-8.317h-6.64V220.36zM-165.567 231.74c0 6.422-5.325 11.6-11.746 11.6-6.637 0-11.744-5.471-11.744-12.037 0-6.346 5.326-11.597 11.599-11.597 6.71 0 11.89 5.396 11.89 12.034m-.144-14.441c-2.845-4.307-7.443-6.277-12.548-6.277-11.161 0-19.99 9.266-19.99 20.28 0 11.309 9.045 20.719 20.426 20.719 5.034 0 9.41-2.336 12.112-6.564v5.545h13.932v-8.318h-4.89V220.36h4.89v-8.315h-13.932v5.254zM-129.098 219.706c6.712 0 11.82 5.472 11.82 12.034 0 6.493-5.4 11.745-11.89 11.745-6.494 0-11.82-5.323-11.82-11.817 0-6.64 5.255-11.962 11.89-11.962m-8.533-11.018c1.533-3.282 5.324-4.814 8.754-4.814 3.062 0 6.275 1.314 8.244 3.573 2.48 2.92 2.7 5.399 2.7 9.046v1.46c-2.772-4.521-7.224-6.493-12.476-6.493-11.087 0-19.695 9.267-19.695 20.136 0 10.723 8.972 20.062 19.766 20.062 5.254 0 10.068-1.826 12.987-6.348v5.692h13.204v-8.317h-5.033v-25.46c0-5.983-.436-10.652-4.89-15.104-4.157-4.084-9.483-5.907-15.243-5.907-8.1 0-16.562 4.013-18.605 12.474h10.287z"/></g></g></svg>